<svg width="358" height="354" viewBox="0 0 358 354" fill="none" xmlns="http://www.w3.org/2000/svg">
<path d="M205.093 60.0471C200.338 62.5819 200.464 73.026 206.871 69.9136C211.788 67.5254 211.672 56.54 205.093 60.0471Z" fill="#D04C4B"/>
<path d="M147 112C164.584 121.365 186.783 122.62 206 118.8C212.228 117.562 220.935 116.307 225.606 111.606C235.197 101.955 224.098 95.9264 215 98C214.998 80.7127 205.504 80.4954 193 89C191.757 83.7776 192.735 77.7722 189.91 73.0193C185.088 64.9038 175.816 68.4801 170.004 73.3287C158.789 82.6845 152.171 98.6716 147 112Z" fill="#D04C4B"/>
<path d="M226.224 77.0471C221.604 79.6878 223.147 89.9484 228.776 86.2878C232.996 83.5439 232.371 73.533 226.224 77.0471Z" fill="#D04C4B"/>
<path d="M192 77V88C196.697 87.2881 199.547 83.628 204 82.5571C213.867 80.1839 215.23 91.3286 215 98C225.821 96.1762 229.92 99.9356 227 111C237.151 105.116 241.165 94.7999 229.005 88.1651C216.595 81.3943 206.702 77.0405 192 77ZM232 78V81H233L232 78ZM163 79C154.279 82.3391 143.609 84.7458 137.407 92.4391C131.901 99.2707 141.595 109.445 148 111L163 79Z" fill="#CAAD66"/>
<path d="M215 90V93H216L215 90ZM134 95C129.533 106.162 141.967 114.293 151 117.985C171.496 126.363 198.229 126.87 219 119.305C225.928 116.782 245.443 107.436 238 98C224.725 122.89 189.041 122.984 165 117.997C152.741 115.454 137.466 109.225 136 95H134Z" fill="#A48F96"/>
<path d="M131 99C122.915 112.241 136.275 119.798 148 124.547C169.524 133.266 198.324 134.313 220 125.796C230.415 121.703 246.192 114.855 241 102H240C224.954 131.004 169.199 129.475 145 114.532C138.428 110.473 135.686 104.649 131 99Z" fill="#CAAD66"/>
<path d="M126 108C123.539 119.036 140.734 125.942 149 128.946C172.476 137.478 200.83 137.863 224 128.395C231.046 125.516 245.272 119.004 244 110C234.983 116.166 227.471 122.76 217 126.564C184.954 138.206 150.763 129.416 126 108Z" fill="#A48F96"/>
<path d="M124 112C121.5 121.446 116.367 137.612 121.179 146.985C126.764 157.863 146.146 161.829 157 164C179.755 168.552 202.851 168.051 225 160.667C233.216 157.928 243.417 154.39 247.427 146C250.181 140.24 248.462 133.061 247.715 127C247.161 122.503 246.77 118.194 245 114C214.323 135.356 178.564 142.829 143 126.11C135.506 122.587 130.436 116.864 124 112Z" fill="#CAAD66"/>
<path d="M121 118C99.9147 134.112 111.15 160.948 133 169.793C163.955 182.325 207.754 182.446 238 167.741C254.173 159.878 273.955 128.17 247 119C247.073 127.806 251.547 139.107 246.297 146.999C240.262 156.072 227.961 159.761 218 162.572C191.319 170.1 145.568 170.957 124.109 149.815C114.604 140.45 124.966 128.16 121 118Z" fill="#A48F96"/>
<path d="M235.147 202.758C228.902 205.369 233.892 213.872 239.852 211.392C245.991 208.837 241.02 200.303 235.147 202.758Z" fill="#514F6B"/>
<path d="M255 220H249V228H255V264H264V228H274V220H264C264.691 213.815 267.916 211.333 274 211V203C262.502 203.032 255.109 207.816 255 220Z" fill="#514F6B"/>
<path d="M212 205V229H213L212 205Z" fill="#CAAD66"/>
<path d="M213 205V230H212C206.93 215.128 184.079 217.584 178.613 231C175.398 238.894 175.862 251.233 181.394 257.957C189.887 268.282 205.946 266.637 212 255H213V264H222V205H213Z" fill="#514F6B"/>
<path d="M34 208V264H43V240H63V233H43V215H67V208H34Z" fill="#514F6B"/>
<path d="M67 208V215H68L67 208Z" fill="#A48F96"/>
<path d="M88.9998 220.532C61.6403 227.05 73.832 270.943 102 263.957C130.612 256.861 118.123 213.594 88.9998 220.532Z" fill="#514F6B"/>
<path d="M141 220.529C113.166 226.964 124.824 270.969 153 264.1C181.849 257.068 170.131 213.796 141 220.529Z" fill="#514F6B"/>
<path d="M233 220V264H242V220H233ZM276 220L288.719 250L293.861 263.576L286 285H296L322 220C307.383 220.002 302.257 239.882 300 253C293.929 240.174 292.416 220.002 276 220Z" fill="#514F6B"/>
<path d="M198 227V228H201L198 227Z" fill="#A48F96"/>
<path d="M91.0036 228.742C75.4753 234.755 84.1432 263.003 100.985 255.772C115.903 249.366 107.89 222.204 91.0036 228.742Z" fill="#F1F1F1"/>
<path d="M143.004 228.573C128.143 232.888 134.388 261.222 150.999 256.192C167.065 251.327 160.791 223.407 143.004 228.573Z" fill="#F1F1F1"/>
<path d="M194.004 228.742C178.488 234.752 187.094 261.969 203.996 255.735C219.919 249.863 211.315 222.037 194.004 228.742Z" fill="#F1F1F1"/>
<path d="M43 232V233H63L43 232Z" fill="#CAAD66"/>
<path d="M73 240V245H74L73 240Z" fill="#A48F96"/>
<path d="M134 240V245H135L134 240Z" fill="#CAAD66"/>
<path d="M176 240V244H177L176 240Z" fill="#A48F96"/>
<path d="M212 255V264H213L212 255Z" fill="#CAAD66"/>
<path d="M34 264V265H43L34 264Z" fill="#A48F96"/>
<path d="M213 264V265H222L213 264ZM233 264V265H242L233 264ZM255 264V265H264L255 264Z" fill="#A48F96"/>
<path d="M285 285V286H295L285 285Z" fill="#CAAD66"/>
</svg>
